<svg t="1637054241054" class="icon" viewBox="0 0 1024 1024" version="1.1" xmlns="http://www.w3.org/2000/svg" p-id="3608" width="20" height="20"><path d="M512.1 333.24c-98.64 0-178.88 80.25-178.88 178.89s80.24 178.88 178.88 178.88 178.89-80.24 178.89-178.88-80.25-178.89-178.89-178.89z m0 295.68c-64.4 0-116.79-52.39-116.79-116.79 0-64.41 52.39-116.8 116.79-116.8 64.41 0 116.8 52.39 116.8 116.8 0 64.39-52.39 116.79-116.8 116.79z" fill="#666666" p-id="3609"></path><path d="M512.1 155.83c-239.74 0-445 271.59-445 356.3s205.26 356.3 445 356.3 445-271.59 445-356.3-205.26-356.3-445-356.3z m0 650.5c-209.73 0-382.91-249.99-382.91-294.2 0-44.22 173.18-294.2 382.91-294.2s382.91 249.99 382.91 294.2c0 44.21-173.19 294.2-382.91 294.2z" fill="yellow" p-id="3610"></path></svg>